<?xml version="1.0" encoding="UTF-8" standalone="no" ?>
<!DOCTYPE svg PUBLIC "-//W3C//DTD SVG 1.1//EN" "http://www.w3.org/Graphics/SVG/1.1/DTD/svg11.dtd">
<svg xmlns="http://www.w3.org/2000/svg" xmlns:xlink="http://www.w3.org/1999/xlink" version="1.1" width="1080" height="1080" viewBox="0 0 1080 1080" xml:space="preserve">
<desc>Created with Fabric.js 5.2.4</desc>
<defs>
</defs>
<g transform="matrix(1 0 0 1 540 540)" id="5091ae6f-6754-415f-8a13-1d635b35c860"  >
<rect style="stroke: none; stroke-width: 1; stroke-dasharray: none; stroke-linecap: butt; stroke-dashoffset: 0; stroke-linejoin: miter; stroke-miterlimit: 4; fill: rgb(255,255,255); fill-rule: nonzero; opacity: 1; visibility: hidden;" vector-effect="non-scaling-stroke"  x="-540" y="-540" rx="0" ry="0" width="1080" height="1080" />
</g>
<g transform="matrix(1 0 0 1 540 540)" id="15a57ef6-e172-41df-9fe5-cd8311c6fd20"  >
</g>
<g transform="matrix(2.06 0 0 5.93 539.73 540.76)"  >
<g style="" vector-effect="non-scaling-stroke"   >
		<g transform="matrix(1 0 0 1 72 -45.5)"  >
<path style="stroke: none; stroke-width: 1; stroke-dasharray: none; stroke-linecap: butt; stroke-dashoffset: 0; stroke-linejoin: miter; stroke-miterlimit: 4; fill: rgb(47,60,103); fill-rule: nonzero; opacity: 1;" vector-effect="non-scaling-stroke"  transform=" translate(-321.5, -41.5)" d="M 245 3 L 245 83 L 236 83 L 236 9 L 229 9 L 227 71 C 227 75 225 78 224 80 C 222 82 219 83 215 83 L 210 83 L 210 74 L 215 74 C 216 74 216 74 216 74 C 217 73 217 73 217 73 C 217 73 217 73 217 73 C 217 72 217 72 217 71 L 220 0 L 245 0 L 245 3 z M 283 3 L 283 83 L 274 83 L 274 34 L 264 44 L 264 83 L 255 83 L 255 0 L 264 0 L 264 31 L 274 21 L 274 0 L 283 0 L 283 3 z M 320 3 L 320 83 L 311 83 L 311 9 L 302 9 L 302 83 L 293 83 L 293 0 L 320 0 L 320 3 z M 333 0 L 339 0 L 339 25 L 343 25 L 352 0 L 361 0 L 351 30 L 362 83 L 353 83 L 342 34 L 339 34 L 339 83 L 330 83 L 330 0 L 333 0 z M 366 80 L 375 0 L 391 0 L 400 83 L 391 83 L 389 66 L 377 66 L 375 83 L 366 83 L 366 80 z M 378 57 L 388 57 L 383 14 L 378 57 z M 433 3 L 433 83 L 424 83 L 424 44 L 421 44 L 414 83 L 404 83 L 412 42 C 411 42 411 42 410 41 L 410 41 C 409 40 408 39 407 38 C 407 37 406 35 406 34 C 406 33 405 31 405 30 L 405 14 C 405 12 406 10 406 9 C 407 7 407 5 408 4 C 410 3 411 2 413 1 C 415 0 417 0 419 0 L 433 0 L 433 3 z M 424 9 L 418 9 C 418 9 417 9 416 10 C 416 10 416 10 416 10 C 415 11 415 11 415 12 C 415 12 415 13 415 14 L 415 30 C 415 31 415 32 415 32 C 415 33 415 33 416 34 C 416 34 417 34 418 34 L 424 34 L 424 9 z" stroke-linecap="round" />
</g>
		<g transform="matrix(1 0 0 1 -151.5 -1)"  >
<path style="stroke: none; stroke-width: 1; stroke-dasharray: none; stroke-linecap: butt; stroke-dashoffset: 0; stroke-linejoin: miter; stroke-miterlimit: 4; fill: rgb(35,204,195); fill-rule: nonzero; opacity: 1;" vector-effect="non-scaling-stroke"  transform=" translate(-98, -86)" d="M 155 26 C 149 26 144 28 140 32 C 135 38 128 41 121 40 C 118 40 114 40 111 40 C 75 40 38 40 2 40 L 0 40 L 0 46 L 2 46 C 40 46 78 46 116 47 C 123 47 129 45 134 40 C 139 35 146 32 154 33 C 167 33 181 33 194 33 C 195 33 195 33 196 33 L 196 26 C 182 26 168 26 155 26 z M 0 26 L 3 26 C 46 26 88 26 131 26 C 138 27 144 25 148 20 C 153 15 159 13 166 12 C 176 12 185 12 195 12 C 195 12 195 13 196 13 L 196 6 C 186 6 178 6 169 6 C 163 6 158 8 154 12 C 150 17 144 20 136 20 C 99 20 62 20 25 20 C 16 20 8 20 0 20 L 0 26 z M 38 172 L 51 172 C 52 172 53 172 53 172 C 68 172 83 172 98 172 L 165 172 C 174 172 184 172 193 172 L 193 172 L 196 172 L 196 166 L 193 166 C 146 166 99 166 52 166 C 47 166 43 167 39 171 C 39 172 39 172 38 172 z M 196 153 L 196 146 L 193 146 C 180 146 167 146 154 146 C 126 146 97 146 69 146 C 62 146 57 147 52 153 C 48 158 42 160 34 160 C 24 160 14 160 4 160 L 0 160 L 0 167 C 1 166 1 166 2 166 C 11 166 21 166 30 167 C 37 167 43 165 47 160 C 53 154 59 153 67 153 C 95 153 123 153 151 153 C 166 153 180 153 196 153 z M 196 133 L 196 126 L 194 126 C 157 126 120 126 83 126 C 77 126 72 127 67 132 C 63 138 56 140 49 140 C 33 140 17 140 2 140 C 1 140 1 140 0 140 L 0 146 L 3 146 C 17 146 31 146 45 147 C 52 147 57 145 62 140 C 67 135 74 132 81 132 C 86 133 91 133 96 133 C 128 133 160 133 192 133 C 193 133 195 133 196 133 z M 196 112 L 196 106 C 194 106 192 106 191 106 C 162 106 133 106 104 106 C 94 106 86 106 79 114 C 76 119 70 120 64 120 C 43 120 23 120 2 120 L 0 120 L 0 126 L 3 126 C 22 126 41 126 60 127 C 66 127 71 125 76 120 C 81 115 88 112 96 112 C 128 113 159 112 191 112 L 196 112 z M 196 93 L 196 86 L 194 86 C 167 86 140 86 113 86 C 106 86 100 87 95 93 C 92 97 87 100 80 100 C 54 100 28 100 2 100 L 0 100 L 0 106 L 2 106 C 26 106 50 106 75 107 C 81 107 86 105 90 101 C 96 95 103 92 111 92 C 135 93 159 93 182 93 C 187 93 191 93 196 93 z M 196 72 L 196 66 L 194 66 C 171 66 149 66 126 66 C 120 66 115 68 111 72 C 106 78 100 80 92 80 C 62 80 33 80 3 80 L 0 80 L 0 86 L 2 86 C 30 86 59 86 87 86 C 94 87 101 85 106 79 C 111 74 117 72 124 72 C 147 73 170 72 194 72 L 196 72 z M 196 52 L 196 46 L 193 46 C 176 46 159 46 141 46 C 135 46 129 47 125 53 C 121 57 116 60 109 60 C 74 60 38 60 2 60 L 0 60 L 0 66 L 3 66 C 36 66 69 66 101 67 C 109 67 115 65 120 60 C 125 55 131 52 138 52 C 156 52 175 52 193 52 L 196 52 z M 163 0 L 153 0 C 152 0 151 0 150 0 C 132 0 115 0 97 0 L 79 0 C 62 0 44 0 27 0 C 18 0 9 0 0 0 L 0 6 L 2 6 C 50 6 98 6 146 7 C 153 7 158 5 163 0 L 163 0 z" stroke-linecap="round" />
</g>
		<g transform="matrix(1 0 0 1 103 44.5)"  >
<path style="stroke: none; stroke-width: 1; stroke-dasharray: none; stroke-linecap: butt; stroke-dashoffset: 0; stroke-linejoin: miter; stroke-miterlimit: 4; fill: rgb(47,60,103); fill-rule: nonzero; opacity: 1;" vector-effect="non-scaling-stroke"  transform=" translate(-352.5, -131.5)" d="M 236 160 C 236 162 236 163 235 165 C 235 167 234 168 233 170 C 232 171 230 172 229 173 C 227 173 225 174 223 174 L 219 174 C 217 174 215 173 213 173 C 211 172 210 171 209 170 C 208 168 207 167 206 165 C 206 163 206 162 206 160 L 206 135 L 215 135 L 215 160 C 215 161 215 161 215 162 C 215 163 216 163 216 164 C 216 164 216 164 217 164 L 217 164 C 217 164 218 164 219 164 L 223 164 C 224 164 224 164 225 164 L 225 164 C 225 164 225 164 226 164 C 226 163 226 163 226 162 C 227 161 227 161 227 160 L 227 125 L 213 125 L 213 115 L 227 115 L 227 103 C 227 102 227 102 226 101 C 226 101 226 100 226 100 C 225 99 225 99 225 99 C 224 99 224 99 223 99 L 219 99 C 218 99 217 99 217 99 C 216 99 216 99 216 100 C 216 100 215 101 215 101 C 215 102 215 102 215 103 L 215 111 L 206 111 L 206 104 C 206 102 206 100 206 98 C 207 97 208 95 209 94 C 211 91 214 90 219 89 L 219 89 L 223 89 C 225 89 227 90 229 90 C 230 91 232 92 233 94 C 234 95 235 96 235 98 C 236 100 236 102 236 104 L 236 160 z M 271 99 L 262 99 L 262 173 L 252 173 L 252 99 L 240 99 L 240 90 L 274 90 L 274 99 L 271 99 z M 309 93 L 309 173 L 299 173 L 299 124 L 290 134 L 290 173 L 280 173 L 280 90 L 290 90 L 290 121 L 299 111 L 299 90 L 309 90 L 309 93 z M 322 90 L 328 90 L 328 115 L 331 115 L 340 90 L 350 90 L 339 120 L 351 173 L 341 173 L 331 125 L 328 125 L 328 173 L 319 173 L 319 90 L 322 90 z M 384 93 L 384 99 L 367 99 L 367 115 L 379 115 L 379 125 L 367 125 L 367 164 L 384 164 L 384 173 L 357 173 L 357 90 L 384 90 L 384 93 z M 420 99 L 410 99 L 410 173 L 401 173 L 401 99 L 388 99 L 388 90 L 423 90 L 423 99 L 420 99 z M 432 90 L 438 90 L 438 115 L 441 115 L 450 90 L 460 90 L 450 120 L 461 173 L 451 173 L 441 125 L 438 125 L 438 173 L 429 173 L 429 90 L 432 90 z M 465 170 L 474 90 L 490 90 L 499 173 L 490 173 L 488 156 L 476 156 L 474 173 L 465 173 L 465 170 z M 477 147 L 487 147 L 482 104 L 477 147 z" stroke-linecap="round" />
</g>
</g>
</g>
</svg>